# xmcd
#
# Track frame offsets:
#	150
#	13370
#	28581
#	43911
#	59612
#	67899
#	78465
#	95660
#	109114
#	120857
#	132651
#	141629
#	155165
#	167704
#	179177
#	190737
#	203198
#	216643
#	229171
#	245563
#
# Disc length: 3446 seconds
#
# Revision: 2
# Processed by: cddbd v1.5.2PL0 Copyright (c) Steve Scherf et al.
# Submitted via: audiograbber 1.83.01
#
DISCID=3d0d7414
DTITLE=Various Artist - Country Love Songs Lovesick Blues
DYEAR=2001
DGENRE=Country
TTITLE0=Kenny Rogers - Ruby (Don´t Take Your Love To Town)
TTITLE1=Billie Jo Spears - Blanket On The Ground
TTITLE2=The Bellamy Brothers - I Need More Of You
TTITLE3=Tammy Wynette - Cryin´In The Rain
TTITLE4=Slim Whitman - Have You Ever Been Lonely
TTITLE5=Patsy Cline - Lovesick Blues
TTITLE6=Charlie Rich - My Elusive Dreams
TTITLE7=Johnny Paycheck - Somebody Loves Me
TTITLE8=Don Gibson - I Can´t Stop Loving You
TTITLE9=Johnny Preston - Running Bear
TTITLE10=Johnny Cash - Remember Me
TTITLE11=Ray Price - Heartaches By The Number
TTITLE12=Bill Anderson - I Love You Drops
TTITLE13=Johnny Rodriguez - Pass Me By
TTITLE14=Patsy Cline - Lonely Street
TTITLE15=Merle Haggard - If Make It Through December
TTITLE16=Lynn Anderson - Rose Garden
TTITLE17=Wanda Jackson - Crazy
TTITLE18=Slim Whitman - The Three Bells (The Jimmy Brown Song)
TTITLE19=Faron Young - It´s Four In The Morning
EXTD=
EXTT0=Kenny Rogers
EXTT1=Billie Jo Spears
EXTT2=The Bellamy Brothers
EXTT3=Tammy Wynette
EXTT4=Slim Whitman
EXTT5=Patsy Cline
EXTT6=Charlie Rich
EXTT7=Jonny Paycheck
EXTT8=Don Gibson
EXTT9=Jonny Preston
EXTT10=Jonny Cash
EXTT11=Ray Price
EXTT12=Bill Anderson
EXTT13=Jonny Rodriguez
EXTT14=Patsy Cline
EXTT15=Merle Haggard
EXTT16=Lyn Anderson
EXTT17=Wanda Jackson
EXTT18=Slim Whitman
EXTT19=Faron Young
PLAYORDER=
